<svg width="32" height="32" viewBox="0 0 32 32" fill="none" xmlns="http://www.w3.org/2000/svg">
<path fill-rule="evenodd" clip-rule="evenodd" d="M25.4235 17.1269C25.3025 16.0613 25.4591 13.8339 25.4696 13.6986C25.536 12.8431 25.136 9.46489 24.3798 9.77616C23.1114 8.76991 21.422 8.54771 19.8422 8.44157C16.5608 8.22106 13.07 8.72726 10.5362 10.9402C9.28317 12.0895 8.06326 13.761 8.16132 15.5013C7.02283 17.151 5.41782 19.414 6.83632 21.3426C7.3185 21.9588 8.08484 22.1882 8.69057 22.6549C9.90893 23.6397 10.6733 25.053 11.9032 26.0319C15.1617 28.9661 20.6946 29.5791 23.8961 26.2416C26.3717 23.8245 25.9714 20.2084 25.536 17.1269C25.2432 15.0552 25.6596 19.2059 25.4235 17.1269Z" fill="#D08B5B"/>
<path fill-rule="evenodd" clip-rule="evenodd" d="M15.4587 3.92254C16.3363 3.74508 17.2374 3.63466 18.1336 3.6679L18.2027 3.67058C18.877 3.69759 19.7309 3.75733 20.3192 4.15026C20.353 4.11623 20.4074 4.09877 20.4568 4.12237C21.1558 4.45674 21.9247 4.69849 22.6607 4.93871C23.3933 5.17776 24.1534 5.33556 24.9213 5.39916C25.2102 5.42311 25.4575 5.73573 25.2745 6.01612C25.231 6.08294 25.1886 6.15043 25.1464 6.21809C25.217 6.21071 25.2876 6.20311 25.3583 6.19595C25.5906 6.17252 25.8227 6.42102 25.809 6.64773C25.8004 6.79032 25.785 6.93122 25.7623 7.07043C25.8508 7.06857 25.9388 7.08187 26.0238 7.11787C26.4542 7.30001 26.4242 7.81376 26.392 8.20463C26.3474 8.74705 26.1449 9.32159 25.769 9.72756C26.0497 10.0197 26.2484 10.3685 26.3669 10.7828C26.4528 11.0854 26.5007 11.4076 26.4771 11.7225L26.4695 11.8168C26.4403 12.1586 26.3823 12.537 26.1369 12.7828C26.011 12.9096 25.8558 12.9558 25.7079 12.9411C25.7974 13.7287 25.8547 14.5209 25.9087 15.3102L25.934 15.6874C26.0544 17.5116 26.1449 19.3477 26.1212 21.1749C26.0992 22.8826 25.7625 24.54 24.7174 25.9265C23.7656 27.189 22.3989 28.1197 20.8529 28.4735C20.0197 28.6645 19.1691 28.6781 18.3259 28.5564C17.9171 28.4972 17.5056 28.4065 17.1176 28.2634C16.6882 28.1045 16.3795 27.8707 16.0906 27.5203C15.9539 27.3541 16.0197 27.0003 16.2918 27.0335C16.7034 27.0836 17.0792 27.1438 17.4738 27.2658L17.5303 27.2837C17.9233 27.4099 18.3304 27.504 18.7413 27.544C19.5829 27.6257 20.4374 27.5434 21.2436 27.2876C22.5563 26.8707 23.6869 25.9417 24.4116 24.7744C25.2717 23.3907 25.369 21.82 25.3566 20.229C25.3433 18.4832 25.2866 16.7364 25.1941 14.9923L25.1784 14.7017C25.1294 13.8042 25.0822 12.9062 25.0407 12.0082C25.0277 11.7265 25.0081 11.4425 24.9726 11.1614C24.6483 10.971 24.3576 10.7085 24.1681 10.3845C23.7875 10.5423 23.3873 10.6561 23.019 10.7468C22.1659 10.957 21.2802 11.0081 20.4119 10.8764C20.1777 10.9734 19.9388 11.0586 19.6963 11.132C19.6308 11.1611 19.5652 11.1897 19.4997 11.2178C18.915 11.4685 18.3219 11.6809 17.7046 11.8364L17.553 11.8742C17.2282 11.9545 16.8753 12.0335 16.5297 12.0583C16.4729 12.0803 16.4116 12.0989 16.3446 12.1152C16.0299 12.1918 15.7032 12.2161 15.3805 12.189C15.0662 12.1625 14.8391 11.8442 15.0122 11.5462C15.1387 11.3287 15.2664 11.1118 15.3951 10.8955C14.9471 11.0825 14.4844 11.238 14.0178 11.3699C13.5467 11.5028 13.0688 11.6149 12.5903 11.718C12.3345 11.7727 12.0777 11.8211 11.8224 11.8758C11.6397 11.9147 11.3592 11.9349 11.2101 12.0555C11.0455 12.1879 10.9988 12.4966 10.9363 12.6871C10.8543 12.9344 10.7772 13.1828 10.707 13.4341C10.567 13.9355 10.4524 14.4442 10.3635 14.958C10.2747 15.4724 10.2151 15.9918 10.1819 16.513C10.1488 17.0335 10.1633 17.5575 10.11 18.0758C10.0813 18.3507 9.78672 18.4921 9.56916 18.3C9.54363 18.2775 9.51791 18.2547 9.49243 18.2317L9.45447 18.1969C9.26833 18.0279 9.08786 17.8487 8.93894 17.6471C8.91195 17.6099 8.88609 17.571 8.86192 17.5316C8.85798 17.5316 8.85461 17.5304 8.85067 17.5276L8.80938 17.4965C8.3547 17.1573 7.59508 16.7152 7.15173 17.2786C7.01045 17.4581 6.93812 17.6866 6.87809 17.9071L6.77275 18.3018C6.70462 18.5594 6.64049 18.8184 6.60298 19.082C6.51808 19.6724 6.56081 20.353 6.96621 20.8262C7.12812 21.0155 7.35131 21.1507 7.6003 21.1862C7.73922 21.2054 7.8764 21.1817 8.01413 21.1642C8.15412 21.1468 8.28899 21.1749 8.42903 21.1614C8.65166 21.1395 8.74892 21.4065 8.66571 21.5744C8.62074 21.6645 8.56784 21.7423 8.50774 21.8082C8.55603 21.8499 8.60219 21.8949 8.6466 21.9423C8.77815 21.9845 8.89616 22.0752 8.98448 22.1952C9.05587 22.2921 9.09292 22.3975 9.09916 22.5085C9.10698 22.5361 9.11372 22.5642 9.11996 22.593L9.24058 22.7891C9.2671 22.8322 9.29354 22.8747 9.32005 22.9164C9.627 23.4009 9.96775 23.811 10.3911 24.1975C10.7987 24.5693 11.2411 24.9023 11.624 25.3011L11.6691 25.3485C12.026 25.7255 12.4023 26.1818 12.2626 26.7299C12.2266 26.8707 12.0304 26.9721 11.9023 26.8769C11.4902 26.5704 11.2827 26.0848 10.933 25.713C10.5732 25.3299 10.1746 24.9857 9.81371 24.6037C9.4724 24.2431 9.20311 23.8347 9.00022 23.3851C8.91921 23.4747 8.8012 23.5383 8.6376 23.5631C8.35651 23.6054 8.09447 23.4403 7.97197 23.1964C7.89321 23.2313 7.81287 23.2628 7.73186 23.2876C7.30572 23.4183 7.03761 22.9434 7.19839 22.5924C7.28435 22.4042 7.39173 22.2409 7.52503 22.1034C7.10839 22.0459 6.68449 21.8302 6.41071 21.5609C5.72376 20.8842 5.62932 19.8673 5.78392 18.9631C5.866 18.4837 6.00761 17.9986 6.19151 17.5485C6.2235 17.4702 6.25785 17.3913 6.29546 17.3135C6.27466 17.313 6.25329 17.304 6.2398 17.2865C6.11556 17.1164 5.96438 16.9772 5.87213 16.7868C5.78724 16.6121 5.69284 16.4352 5.62589 16.2533C5.48821 15.8809 5.42074 15.4606 5.37577 15.0668C5.28301 14.2606 5.31893 13.4595 5.44211 12.6583C5.65175 11.2938 6.15817 9.98801 6.90425 8.84221C6.86363 8.82082 6.8247 8.79499 6.78842 8.76446L6.77051 8.7488L6.74139 8.72243C6.52849 8.52936 6.54687 8.1675 6.74139 7.97195L6.80282 7.91024C6.88062 7.83279 6.9477 7.77144 7.07336 7.68711C7.09191 7.67466 7.11086 7.66294 7.13003 7.65201C7.06425 7.53021 7.04143 7.38778 7.08725 7.23066C7.24691 6.68328 8.03285 6.70266 8.53101 6.94136C9.08213 6.44846 9.69323 6.02057 10.3556 5.67409C11.9332 4.8493 13.7169 4.27409 15.4587 3.92254ZM7.3041 18.3395C7.59869 18.2431 7.98998 18.4454 8.25477 18.5671C8.5904 18.7214 8.87599 18.9496 9.15259 19.1907C9.29033 19.3113 9.31501 19.5085 9.28077 19.6769C9.27734 19.6938 9.27402 19.7113 9.27003 19.7288C9.23349 19.9085 9.03335 20.0499 8.85626 20.0448C8.48577 20.0347 8.3093 19.7141 8.09955 19.4426C8.07487 19.4865 8.04395 19.5271 8.00566 19.5575L7.97981 19.5778C7.89278 19.6442 7.79683 19.6973 7.68184 19.6921C7.60032 19.6882 7.52223 19.6673 7.45022 19.6296C7.27031 19.5344 7.1911 19.3011 7.23996 19.1113C7.27031 18.9918 7.34003 18.8983 7.4311 18.8335L7.39715 18.8103C7.32451 18.7596 7.25826 18.7062 7.20663 18.6274L7.19498 18.6088H7.19948C7.14326 18.5118 7.17986 18.38 7.3041 18.3395Z" fill="black"/>
<path fill-rule="evenodd" clip-rule="evenodd" d="M19.8412 24.0522C19.4625 23.8977 19.1246 23.64 18.8775 23.3108C18.7916 23.1963 18.7694 23.0755 18.7874 22.965C18.8076 22.8407 18.8812 22.728 18.9815 22.6525C19.0821 22.5767 19.2079 22.5393 19.3295 22.5583C19.4352 22.5749 19.5405 22.6328 19.6237 22.7528L19.6411 22.7768C19.788 22.9755 19.9794 23.1385 20.1975 23.2436C20.4077 23.3449 20.6427 23.3922 20.886 23.3647C21.3493 23.3124 21.6687 23.0618 22.0081 22.7215C22.0502 22.6786 22.0923 22.6343 22.1346 22.5892C22.1613 22.5484 22.1984 22.5222 22.2395 22.5084C22.2852 22.4932 22.3369 22.494 22.3843 22.5106C22.43 22.5265 22.4708 22.5567 22.4982 22.5969C22.5242 22.6351 22.5389 22.6823 22.5341 22.7366C22.5031 23.0892 22.3187 23.4039 22.0568 23.651C21.766 23.9255 21.3805 24.1153 21.0175 24.1819C20.6176 24.2553 20.2102 24.2027 19.8412 24.0522V24.0522ZM21.2061 18.6122C21.6316 18.8708 22.2798 19.4738 21.8221 20.1149C21.2834 20.6802 20.5078 20.0321 20.1256 19.739C19.7712 19.5118 19.373 20.096 19.7018 20.3613C22.4637 22.4061 23.5845 18.6799 21.4213 18.3082C21.1831 18.2673 21.0947 18.5323 21.2061 18.6122ZM16.2568 16.2336C16.3038 15.6502 17.1924 15.5177 17.2808 16.095C17.36 16.6122 17.2668 17.0873 17.0338 17.5529C16.8112 17.9978 16.2518 17.7902 16.2094 17.3852C16.1527 16.8422 16.2276 16.5966 16.2568 16.2336ZM23.0209 15.9753C23.1448 15.8131 23.3237 15.7023 23.538 15.7649C24.2076 15.9605 24.0102 16.9111 23.7751 17.3738C23.6473 17.6251 23.2343 17.6888 23.0477 17.4676C22.7434 17.1068 22.5977 16.3863 22.9845 16.0309C22.995 16.0125 23.0066 15.994 23.0209 15.9753ZM17.0244 13.6806L17.1301 13.6621C17.4573 13.6055 17.8642 13.5511 18.0956 13.8142C18.2184 13.9537 18.2607 14.2129 18.0956 14.3465C17.8054 14.5814 17.4845 14.4904 17.1367 14.5102C16.85 14.5267 16.5745 14.5741 16.2984 14.6531C15.6927 14.8262 15.1991 15.1422 14.6817 15.4893C14.6138 15.5348 14.5445 15.448 14.5769 15.3845C14.8756 14.7995 15.4544 14.319 16.0341 14.0261C16.3435 13.8698 16.6821 13.7401 17.0244 13.6806ZM22.4106 13.4186L22.4915 13.4351C23.3725 13.6193 24.5171 13.9871 24.9343 14.8525C24.9502 14.9748 24.9334 15.001 24.9197 15.0182L24.9152 15.0239C24.9039 15.0385 24.8949 15.0587 24.8419 15.0753C24.8272 15.0718 24.8123 15.0681 24.7973 15.0642C24.6061 15.0141 24.4548 14.945 24.3083 14.8734L24.1495 14.7951C23.9652 14.7048 23.7793 14.6177 23.5823 14.5535C23.1619 14.4163 22.7295 14.3197 22.2904 14.2682C22.1952 14.257 22.1036 14.2249 22.0313 14.1698C21.9626 14.1176 21.9102 14.0452 21.8863 13.9491C21.8553 13.8246 21.8642 13.7304 21.931 13.6181C21.9812 13.5338 22.0531 13.4753 22.1356 13.4418C22.2197 13.4076 22.3154 13.3995 22.4106 13.4186Z" fill="black"/>
<path fill-rule="evenodd" clip-rule="evenodd" d="M16.1869 24.4052C16.6431 23.3367 17.6386 22.5513 18.7848 22.2642C19.6265 22.0539 20.5098 22.0606 21.3678 22.1441C21.8174 22.1875 22.2996 22.2231 22.7232 22.39C23.085 22.5326 23.3798 22.8022 23.6015 23.1187C23.8654 23.4937 24.0448 23.9229 24.1709 24.3628C24.1888 24.4253 24.2056 24.4883 24.2213 24.5516C24.1665 24.8835 24.0501 25.166 23.7427 25.3747C23.4427 25.5785 23.0848 25.6618 22.7279 25.6915C22.6929 25.6746 22.6591 25.6574 22.6281 25.6397C22.0721 25.3214 21.6807 24.5691 20.9789 24.6709C20.3526 24.7618 19.9403 25.5499 19.5678 26.012C18.3722 26.1513 17.1775 25.7921 16.2047 25.1084C16.1553 24.8744 16.1525 24.6384 16.1869 24.4052M25.0339 23.5946C24.9382 23.3262 24.8178 23.0663 24.675 22.8214C24.2029 22.0116 23.4783 21.3663 22.618 20.9975C20.583 20.1261 17.9498 20.7404 16.3064 22.1694C15.745 22.658 15.1774 23.3759 15.0057 24.1481C14.9544 24.1582 14.9061 24.1849 14.8662 24.2224C13.6788 23.4749 12.4561 22.7556 11.4993 21.7194C10.8044 20.9665 10.3211 20.0754 10.0252 19.0963C10.001 19.0157 9.871 19.0275 9.87494 19.1167C9.87606 19.1375 9.87719 19.1583 9.87831 19.1792C9.86594 19.1408 9.80742 19.1606 9.80292 19.1978C9.6437 20.3873 9.44452 21.6483 9.62794 22.844C9.73766 23.5574 10.0617 24.0797 10.495 24.6437C10.9591 25.2482 11.4846 25.8105 12.0219 26.3497C12.3629 26.692 12.719 27.0868 13.1365 27.3378C13.6221 27.6294 14.1729 27.8511 14.6911 28.076C15.2183 28.3056 15.7533 28.5176 16.2985 28.7015C17.3883 29.0703 18.5147 29.3253 19.6608 29.4369C20.5785 29.526 21.6272 29.6231 22.5066 29.2779C23.1806 29.0134 23.7247 28.5352 24.1562 27.9599C24.626 27.3333 24.9974 26.6195 25.2027 25.8669C25.4161 25.0851 25.0789 23.7207 25.0339 23.5946" fill="black"/>
<path fill-rule="evenodd" clip-rule="evenodd" d="M24.3044 14.4225C25.6268 14.4225 26.3814 14.7069 26.658 14.7291L26.6663 14.7297C26.7813 14.737 26.8845 14.7466 26.9927 14.7885C27.3908 14.9418 27.4556 15.3593 27.2233 15.6224C27.207 16.1668 27.2786 16.803 27.1558 17.3492C27.0042 19.6518 25.9214 20.0403 25.3058 20.1822C24.9968 20.2534 24.6305 20.2817 24.3023 20.2065C23.7423 20.1857 23.1887 20.0104 22.715 19.7051C22.0553 19.2796 21.5654 18.6257 21.4064 17.8496C21.331 17.4796 21.2958 17.0946 21.3368 16.7186L21.3429 16.6668C21.1285 16.5642 20.88 16.5448 20.6239 16.5357C20.5015 16.5314 20.3809 16.5275 20.2637 16.5327C20.1492 16.5455 20.0361 16.5625 19.9226 16.5857C19.7986 16.6231 19.6816 16.6848 19.5735 16.7826L19.5661 16.9252C19.5458 17.2816 19.499 17.6391 19.4268 17.9888C19.3202 18.5047 19.1488 18.9974 18.784 19.3634C18.6606 19.5478 18.5078 19.7124 18.3223 19.855C17.6485 20.3738 16.733 20.5642 15.8928 20.4925C14.187 20.3469 13.2011 18.9929 12.9739 18.4141L12.9603 18.379C12.7961 17.9488 12.6653 17.3905 12.1467 17.298L12.0364 17.2782C11.7997 17.2338 11.5813 17.1719 11.4425 16.941C11.3817 16.8402 11.3504 16.7275 11.3427 16.6125C11.2618 16.6187 11.1809 16.6247 11.1003 16.6304C10.4576 16.7664 6.60254 16.8816 6.29483 16.8816C6.29483 16.8816 5.70334 17.1306 5.45361 16.9377C5.28051 16.8035 5.22357 16.6248 5.31885 16.4223C5.46263 16.1175 6.12592 15.9343 6.42045 15.8762C6.42045 15.8762 11.1734 15.9157 11.5155 15.8508C11.7271 15.6326 12.1057 15.6625 12.4221 15.628C12.684 15.4412 13.0504 15.3161 13.3398 15.2324C13.3988 15.2101 13.4572 15.1885 13.5139 15.1681C14.0445 14.9791 14.596 14.8791 15.1559 14.8253C15.7332 14.7705 16.3123 14.7953 16.8862 14.8739C17.1281 14.9067 17.3677 14.9492 17.6057 15.0047C18.0317 15.0608 18.4553 15.1533 18.8815 15.2631L18.9667 15.2852C19.4155 15.4029 19.8767 15.5047 20.3413 15.4249C20.7196 15.3604 21.0833 15.2148 21.432 15.0574L21.4774 15.0368C22.2442 14.6867 23.4417 14.4225 24.3044 14.4225ZM17.5595 15.7027C17.2766 15.6405 17.1558 16.0767 17.4396 16.1391C17.6406 16.1833 17.8109 16.2846 17.926 16.4563L17.9381 16.475C18.0926 16.7207 18.4831 16.4939 18.3276 16.2465C18.1526 15.9682 17.8807 15.7733 17.5595 15.7027ZM25.8461 15.4322C25.7463 15.362 25.5954 15.4141 25.5375 15.5134C25.4738 15.6227 25.5155 15.7444 25.609 15.816L25.6185 15.8229C25.7042 15.8833 25.7876 15.9916 25.7981 16.1025L25.799 16.1164C25.8102 16.4066 26.2613 16.4081 26.2501 16.1164C26.2391 15.831 26.0738 15.5925 25.8461 15.4322Z" fill="black"/>
</svg>
